<svg xmlns="http://www.w3.org/2000/svg" width="51" height="55.154" viewBox="0 0 51 55.154"><defs><style>.a{fill:#f8f8f8;}.b{fill:none;stroke:#9d9d9c;stroke-linecap:round;stroke-linejoin:round;stroke-width:3px;}</style></defs><g transform="translate(-2686.441 -1567.098)"><path class="a" d="M2714.94,1573.6l16,16v21.154c-.08,3.28-1.72,4.918-5,5h-28c-3.28-.082-4.92-1.72-5-5V1578.6c.08-3.28,1.72-4.92,5-5Z" transform="translate(0.001 0)"/><circle class="b" cx="11.315" cy="11.315" r="11.315" transform="translate(2700.425 1586.207)"/><line class="b" x1="12.172" y1="12.172" transform="translate(2720.304 1606.195)"/><path class="b" d="M2717.94,1568.6l18,18v28.154a6.153,6.153,0,0,1-6,6h-36a6.154,6.154,0,0,1-6-6V1574.6a6.152,6.152,0,0,1,6-6Z" transform="translate(0.001 0)"/></g></svg>