<svg xmlns="http://www.w3.org/2000/svg" width="39" height="39" viewBox="0 0 39 39">

    <defs>
    <style>.relogio-a{fill:#fff;stroke:#0c5456;stroke-width:2px;}.relogio-b{fill:#0c5456;}.relogio-c,.relogio-e{fill:none;}.relogio-c{stroke:#53b7b9;stroke-linecap:round;stroke-width:3px;}.relogio-d{stroke:none;}</style>
    </defs><g transform="translate(-312 -431.981)"><g transform="translate(312 431.981)"><g class="relogio-a" transform="translate(0 0)">
    <circle class="relogio-d" cx="19.5" cy="19.5" r="19.5"/><circle class="relogio-e" cx="19.5" cy="19.5" r="18.5"/></g></g><g transform="translate(317.831 437.831)">
    <circle class="relogio-b" cx="1.749" cy="1.749" r="1.749" transform="translate(0 11.911)"/><circle class="relogio-b" cx="1.749" cy="1.749" r="1.749" transform="translate(4.082 19.74)"/>
    <circle class="relogio-b" cx="1.749" cy="1.749" r="1.749" transform="translate(4.082 4.082)"/><circle class="relogio-b" cx="1.749" cy="1.749" r="1.749" transform="translate(19.74 19.74)"/>
    <circle class="relogio-b" cx="1.749" cy="1.749" r="1.749" transform="translate(19.74 4.082)"/><circle class="relogio-b" cx="1.749" cy="1.749" r="1.749" transform="translate(23.821 11.911)"/>
    <circle class="relogio-b" cx="1.749" cy="1.749" r="1.749" transform="translate(11.911 23.821)"/><circle class="relogio-b" cx="1.749" cy="1.749" r="1.749" transform="translate(11.911)"/>
    <g transform="translate(9.178 5.497)"><line class="relogio-c" x2="4.665" y2="4.665" transform="translate(0 4.665)"/><line class="relogio-c" x1="8.163" y2="9.329" transform="translate(4.665)"/>
    </g></g></g>

</svg>