<svg xmlns="http://www.w3.org/2000/svg" xmlns:xlink="http://www.w3.org/1999/xlink" width="51.5" height="110" viewBox="0 0 51.5 110"><defs><style>.temperature_a{fill:#fff;stroke-width:2px;}.temperature_a,temperature_d{stroke:#3a3a3a;}.temperature_b{fill:#f4f4f4;}.temperature_c{fill:url(#temperature_a);}temperature_d{fill:none;stroke-linecap:round;}</style><linearGradient id="temperature_a" x1="0.5" x2="0.5" y2="1" gradientUnits="objectBoundingBox"><stop offset="0" stop-color="#60b565"/><stop offset="1" stop-color="#349698"/></linearGradient></defs><g transform="translate(1 1)"><path class="temperature_a" d="M1204.023,70.016V8.473a9.818,9.818,0,1,0-19.636,0V70.016a19.636,19.636,0,1,0,19.636,0Z" transform="translate(-1174.569 1.345)"/><path class="temperature_b" d="M1202.655,75.356l-2.449-1.418V9.564a4.909,4.909,0,1,0-9.818,0V73.938l-2.45,1.418a14.728,14.728,0,1,0,14.718,0Z" transform="translate(-1175.66 0.254)"/><path class="temperature_c" d="M1202.655,81.9l-2.449-1.418V77.291a4.909,4.909,0,1,0-9.818,0v3.192l-2.45,1.418a14.728,14.728,0,1,0,14.718,0Z" transform="translate(-1175.66 -6.291)"/><g transform="translate(39.6 9.9)"><line class="temperature_d" x2="10" transform="translate(0.4 0.1)"/><line class="temperature_d" x2="4" transform="translate(0.4 4.1)"/><line class="temperature_d" x2="10" transform="translate(0.4 10.1)"/><line class="temperature_d" x2="4" transform="translate(0.4 14.1)"/><line class="temperature_d" x2="10" transform="translate(0.4 20.1)"/><line class="temperature_d" x2="4" transform="translate(0.4 24.1)"/><line class="temperature_d" x2="10" transform="translate(0.4 30.1)"/><line class="temperature_d" x2="4" transform="translate(0.4 34.1)"/><line class="temperature_d" x2="10" transform="translate(0.4 40.1)"/><line class="temperature_d" x2="4" transform="translate(0.4 44.1)"/><line class="temperature_d" x2="10" transform="translate(0.4 49.1)"/><line class="temperature_d" x2="4" transform="translate(0.4 54.1)"/><line class="temperature_d" x2="10" transform="translate(0.4 58.1)"/></g></g></svg>